<mxfile host="app.diagrams.net" modified="2024-05-14T09:32:31.222Z" agent="Mozilla/5.0 (X11; Linux x86_64; rv:101.0) Gecko/20100101 Firefox/101.0" etag="MbfYxSll0yW7kSRNfqhA" version="24.4.0" type="google">
  <diagram name="Страница — 1" id="27tkFKmYh6qccnv94LJM">
    <mxGraphModel grid="1" page="1" gridSize="10" guides="1" tooltips="1" connect="1" arrows="1" fold="1" pageScale="1" pageWidth="827" pageHeight="1169" math="0" shadow="0">
      <root>
        <mxCell id="0" />
        <mxCell id="1" parent="0" />
        <mxCell id="CjtCFs6DFlmVm1d0gdW7-1" value="&lt;div&gt;Главная страница и 15 товаров&lt;/div&gt;" style="rounded=0;whiteSpace=wrap;html=1;fontSize=16;fontFamily=Times New Roman;labelBackgroundColor=none;fillColor=#F2CC8F;strokeColor=#E07A5F;fontColor=#393C56;" vertex="1" parent="1">
          <mxGeometry x="1280" y="110" width="140" height="60" as="geometry" />
        </mxCell>
        <mxCell id="CjtCFs6DFlmVm1d0gdW7-6" value="" style="endArrow=none;html=1;rounded=0;labelBackgroundColor=none;strokeColor=#E07A5F;fontColor=default;" edge="1" parent="1">
          <mxGeometry width="50" height="50" relative="1" as="geometry">
            <mxPoint x="20" y="230" as="sourcePoint" />
            <mxPoint x="800" y="230" as="targetPoint" />
          </mxGeometry>
        </mxCell>
        <mxCell id="CjtCFs6DFlmVm1d0gdW7-7" value="" style="endArrow=none;html=1;rounded=0;labelBackgroundColor=none;strokeColor=#E07A5F;fontColor=default;" edge="1" parent="1">
          <mxGeometry width="50" height="50" relative="1" as="geometry">
            <mxPoint x="1350" y="229" as="sourcePoint" />
            <mxPoint x="1350" y="170" as="targetPoint" />
          </mxGeometry>
        </mxCell>
        <mxCell id="CjtCFs6DFlmVm1d0gdW7-11" value="" style="endArrow=none;html=1;rounded=0;labelBackgroundColor=none;strokeColor=#E07A5F;fontColor=default;" edge="1" parent="1">
          <mxGeometry width="50" height="50" relative="1" as="geometry">
            <mxPoint x="20" y="290" as="sourcePoint" />
            <mxPoint x="20" y="231" as="targetPoint" />
          </mxGeometry>
        </mxCell>
        <mxCell id="CjtCFs6DFlmVm1d0gdW7-12" value="&lt;div&gt;Описание 2&lt;/div&gt;&lt;div&gt;&amp;nbsp;товара&lt;/div&gt;" style="rounded=0;whiteSpace=wrap;html=1;fontSize=16;fontFamily=Times New Roman;labelBackgroundColor=none;fillColor=#F2CC8F;strokeColor=#E07A5F;fontColor=#393C56;" vertex="1" parent="1">
          <mxGeometry x="150" y="290" width="140" height="60" as="geometry" />
        </mxCell>
        <mxCell id="CjtCFs6DFlmVm1d0gdW7-13" value="" style="endArrow=none;html=1;rounded=0;fontFamily=Times New Roman;labelBackgroundColor=none;strokeColor=#E07A5F;fontColor=default;" edge="1" parent="1">
          <mxGeometry width="50" height="50" relative="1" as="geometry">
            <mxPoint x="219.5" y="290" as="sourcePoint" />
            <mxPoint x="219.5" y="231" as="targetPoint" />
          </mxGeometry>
        </mxCell>
        <mxCell id="CjtCFs6DFlmVm1d0gdW7-14" value="&lt;div&gt;Описание 3 &lt;br&gt;&lt;/div&gt;&lt;div&gt;товара&lt;/div&gt;" style="rounded=0;whiteSpace=wrap;html=1;fontSize=16;fontFamily=Times New Roman;labelBackgroundColor=none;fillColor=#F2CC8F;strokeColor=#E07A5F;fontColor=#393C56;" vertex="1" parent="1">
          <mxGeometry x="330" y="290" width="140" height="60" as="geometry" />
        </mxCell>
        <mxCell id="CjtCFs6DFlmVm1d0gdW7-15" value="&lt;div&gt;Описание 4&lt;br&gt;&lt;/div&gt;&lt;div&gt;&amp;nbsp;товара&lt;/div&gt;" style="rounded=0;whiteSpace=wrap;html=1;fontSize=16;fontFamily=Times New Roman;labelBackgroundColor=none;fillColor=#F2CC8F;strokeColor=#E07A5F;fontColor=#393C56;" vertex="1" parent="1">
          <mxGeometry x="510" y="290" width="140" height="60" as="geometry" />
        </mxCell>
        <mxCell id="CjtCFs6DFlmVm1d0gdW7-16" value="&lt;div&gt;Описание 1&lt;br&gt;&lt;/div&gt;&lt;div&gt;&amp;nbsp;товара&lt;/div&gt;" style="rounded=0;whiteSpace=wrap;html=1;fontSize=16;fontFamily=Times New Roman;labelBackgroundColor=none;fillColor=#F2CC8F;strokeColor=#E07A5F;fontColor=#393C56;" vertex="1" parent="1">
          <mxGeometry x="-50" y="290" width="140" height="60" as="geometry" />
        </mxCell>
        <mxCell id="CjtCFs6DFlmVm1d0gdW7-17" value="&lt;div&gt;Описание 5&lt;br&gt;&lt;/div&gt;&lt;div&gt;&amp;nbsp;товара&lt;/div&gt;" style="rounded=0;whiteSpace=wrap;html=1;fontSize=16;fontFamily=Times New Roman;labelBackgroundColor=none;fillColor=#F2CC8F;strokeColor=#E07A5F;fontColor=#393C56;" vertex="1" parent="1">
          <mxGeometry x="687" y="290" width="140" height="60" as="geometry" />
        </mxCell>
        <mxCell id="CjtCFs6DFlmVm1d0gdW7-18" value="&lt;div&gt;Описание 6&lt;br&gt;&lt;/div&gt;&lt;div&gt;&amp;nbsp;товара&lt;/div&gt;" style="rounded=0;whiteSpace=wrap;html=1;fontSize=16;fontFamily=Times New Roman;labelBackgroundColor=none;fillColor=#F2CC8F;strokeColor=#E07A5F;fontColor=#393C56;" vertex="1" parent="1">
          <mxGeometry x="860" y="290" width="140" height="60" as="geometry" />
        </mxCell>
        <mxCell id="CjtCFs6DFlmVm1d0gdW7-19" value="&lt;div&gt;Описание 7&lt;br&gt;&lt;/div&gt;&lt;div&gt;&amp;nbsp;товара&lt;/div&gt;" style="rounded=0;whiteSpace=wrap;html=1;fontSize=16;fontFamily=Times New Roman;labelBackgroundColor=none;fillColor=#F2CC8F;strokeColor=#E07A5F;fontColor=#393C56;" vertex="1" parent="1">
          <mxGeometry x="1030" y="290" width="140" height="60" as="geometry" />
        </mxCell>
        <mxCell id="CjtCFs6DFlmVm1d0gdW7-20" value="&lt;div&gt;Описание 8&lt;br&gt;&lt;/div&gt;&lt;div&gt;&amp;nbsp;товара&lt;/div&gt;" style="rounded=0;whiteSpace=wrap;html=1;fontSize=16;fontFamily=Times New Roman;labelBackgroundColor=none;fillColor=#F2CC8F;strokeColor=#E07A5F;fontColor=#393C56;" vertex="1" parent="1">
          <mxGeometry x="1200" y="290" width="140" height="60" as="geometry" />
        </mxCell>
        <mxCell id="CjtCFs6DFlmVm1d0gdW7-21" value="&lt;div&gt;Описание 9&lt;br&gt;&lt;/div&gt;&lt;div&gt;&amp;nbsp;товара&lt;/div&gt;" style="rounded=0;whiteSpace=wrap;html=1;fontSize=16;fontFamily=Times New Roman;labelBackgroundColor=none;fillColor=#F2CC8F;strokeColor=#E07A5F;fontColor=#393C56;" vertex="1" parent="1">
          <mxGeometry x="1370" y="290" width="140" height="60" as="geometry" />
        </mxCell>
        <mxCell id="CjtCFs6DFlmVm1d0gdW7-22" value="&lt;div&gt;Описание 10&lt;br&gt;&lt;/div&gt;&lt;div&gt;&amp;nbsp;товара&lt;/div&gt;" style="rounded=0;whiteSpace=wrap;html=1;fontSize=16;fontFamily=Times New Roman;labelBackgroundColor=none;fillColor=#F2CC8F;strokeColor=#E07A5F;fontColor=#393C56;" vertex="1" parent="1">
          <mxGeometry x="1540" y="290" width="140" height="60" as="geometry" />
        </mxCell>
        <mxCell id="CjtCFs6DFlmVm1d0gdW7-23" value="&lt;div&gt;Описание 11&lt;br&gt;&lt;/div&gt;&lt;div&gt;&amp;nbsp;товара&lt;/div&gt;" style="rounded=0;whiteSpace=wrap;html=1;fontSize=16;fontFamily=Times New Roman;labelBackgroundColor=none;fillColor=#F2CC8F;strokeColor=#E07A5F;fontColor=#393C56;" vertex="1" parent="1">
          <mxGeometry x="1710" y="290" width="140" height="60" as="geometry" />
        </mxCell>
        <mxCell id="CjtCFs6DFlmVm1d0gdW7-24" value="&lt;div&gt;Описание 12&lt;br&gt;&lt;/div&gt;&lt;div&gt;&amp;nbsp;товара&lt;/div&gt;" style="rounded=0;whiteSpace=wrap;html=1;fontSize=16;fontFamily=Times New Roman;labelBackgroundColor=none;fillColor=#F2CC8F;strokeColor=#E07A5F;fontColor=#393C56;" vertex="1" parent="1">
          <mxGeometry x="1880" y="290" width="140" height="60" as="geometry" />
        </mxCell>
        <mxCell id="CjtCFs6DFlmVm1d0gdW7-25" value="&lt;div&gt;Описание 13&lt;br&gt;&lt;/div&gt;&lt;div&gt;&amp;nbsp;товара&lt;/div&gt;" style="rounded=0;whiteSpace=wrap;html=1;fontSize=16;fontFamily=Times New Roman;labelBackgroundColor=none;fillColor=#F2CC8F;strokeColor=#E07A5F;fontColor=#393C56;" vertex="1" parent="1">
          <mxGeometry x="2050" y="290" width="140" height="60" as="geometry" />
        </mxCell>
        <mxCell id="CjtCFs6DFlmVm1d0gdW7-26" value="&lt;div&gt;Описание 14&lt;br&gt;&lt;/div&gt;&lt;div&gt;&amp;nbsp;товара&lt;/div&gt;" style="rounded=0;whiteSpace=wrap;html=1;fontSize=16;fontFamily=Times New Roman;labelBackgroundColor=none;fillColor=#F2CC8F;strokeColor=#E07A5F;fontColor=#393C56;" vertex="1" parent="1">
          <mxGeometry x="2220" y="290" width="140" height="60" as="geometry" />
        </mxCell>
        <mxCell id="CjtCFs6DFlmVm1d0gdW7-27" value="&lt;div&gt;Описание 15&lt;br&gt;&lt;/div&gt;&lt;div&gt;&amp;nbsp;товара&lt;/div&gt;" style="rounded=0;whiteSpace=wrap;html=1;fontSize=16;fontFamily=Times New Roman;labelBackgroundColor=none;fillColor=#F2CC8F;strokeColor=#E07A5F;fontColor=#393C56;" vertex="1" parent="1">
          <mxGeometry x="2390" y="290" width="140" height="60" as="geometry" />
        </mxCell>
        <mxCell id="CjtCFs6DFlmVm1d0gdW7-28" value="" style="endArrow=none;html=1;rounded=0;labelBackgroundColor=none;strokeColor=#E07A5F;fontColor=default;" edge="1" parent="1">
          <mxGeometry width="50" height="50" relative="1" as="geometry">
            <mxPoint x="800" y="230" as="sourcePoint" />
            <mxPoint x="1580" y="230" as="targetPoint" />
          </mxGeometry>
        </mxCell>
        <mxCell id="CjtCFs6DFlmVm1d0gdW7-29" value="" style="endArrow=none;html=1;rounded=0;labelBackgroundColor=none;strokeColor=#E07A5F;fontColor=default;" edge="1" parent="1">
          <mxGeometry width="50" height="50" relative="1" as="geometry">
            <mxPoint x="1580" y="230" as="sourcePoint" />
            <mxPoint x="2460" y="230" as="targetPoint" />
          </mxGeometry>
        </mxCell>
        <mxCell id="CjtCFs6DFlmVm1d0gdW7-33" value="" style="endArrow=none;html=1;rounded=0;fontFamily=Times New Roman;labelBackgroundColor=none;strokeColor=#E07A5F;fontColor=default;" edge="1" parent="1">
          <mxGeometry width="50" height="50" relative="1" as="geometry">
            <mxPoint x="399.47" y="290" as="sourcePoint" />
            <mxPoint x="399.47" y="231" as="targetPoint" />
          </mxGeometry>
        </mxCell>
        <mxCell id="CjtCFs6DFlmVm1d0gdW7-34" value="" style="endArrow=none;html=1;rounded=0;fontFamily=Times New Roman;labelBackgroundColor=none;strokeColor=#E07A5F;fontColor=default;" edge="1" parent="1">
          <mxGeometry width="50" height="50" relative="1" as="geometry">
            <mxPoint x="579.47" y="290" as="sourcePoint" />
            <mxPoint x="579.47" y="231" as="targetPoint" />
          </mxGeometry>
        </mxCell>
        <mxCell id="CjtCFs6DFlmVm1d0gdW7-35" value="" style="endArrow=none;html=1;rounded=0;fontFamily=Times New Roman;labelBackgroundColor=none;strokeColor=#E07A5F;fontColor=default;" edge="1" parent="1">
          <mxGeometry width="50" height="50" relative="1" as="geometry">
            <mxPoint x="760" y="290" as="sourcePoint" />
            <mxPoint x="760" y="231" as="targetPoint" />
          </mxGeometry>
        </mxCell>
        <mxCell id="CjtCFs6DFlmVm1d0gdW7-36" value="" style="endArrow=none;html=1;rounded=0;fontFamily=Times New Roman;labelBackgroundColor=none;strokeColor=#E07A5F;fontColor=default;" edge="1" parent="1">
          <mxGeometry width="50" height="50" relative="1" as="geometry">
            <mxPoint x="929.47" y="290" as="sourcePoint" />
            <mxPoint x="929.47" y="231" as="targetPoint" />
          </mxGeometry>
        </mxCell>
        <mxCell id="CjtCFs6DFlmVm1d0gdW7-37" value="" style="endArrow=none;html=1;rounded=0;fontFamily=Times New Roman;labelBackgroundColor=none;strokeColor=#E07A5F;fontColor=default;" edge="1" parent="1">
          <mxGeometry width="50" height="50" relative="1" as="geometry">
            <mxPoint x="1099.47" y="290" as="sourcePoint" />
            <mxPoint x="1099.47" y="231" as="targetPoint" />
          </mxGeometry>
        </mxCell>
        <mxCell id="CjtCFs6DFlmVm1d0gdW7-38" value="" style="endArrow=none;html=1;rounded=0;fontFamily=Times New Roman;labelBackgroundColor=none;strokeColor=#E07A5F;fontColor=default;" edge="1" parent="1">
          <mxGeometry width="50" height="50" relative="1" as="geometry">
            <mxPoint x="1269.47" y="290" as="sourcePoint" />
            <mxPoint x="1269.47" y="231" as="targetPoint" />
          </mxGeometry>
        </mxCell>
        <mxCell id="CjtCFs6DFlmVm1d0gdW7-39" value="" style="endArrow=none;html=1;rounded=0;fontFamily=Times New Roman;labelBackgroundColor=none;strokeColor=#E07A5F;fontColor=default;" edge="1" parent="1">
          <mxGeometry width="50" height="50" relative="1" as="geometry">
            <mxPoint x="1439.47" y="290" as="sourcePoint" />
            <mxPoint x="1439.47" y="231" as="targetPoint" />
          </mxGeometry>
        </mxCell>
        <mxCell id="CjtCFs6DFlmVm1d0gdW7-40" value="" style="endArrow=none;html=1;rounded=0;fontFamily=Times New Roman;labelBackgroundColor=none;strokeColor=#E07A5F;fontColor=default;" edge="1" parent="1">
          <mxGeometry width="50" height="50" relative="1" as="geometry">
            <mxPoint x="1609.47" y="290" as="sourcePoint" />
            <mxPoint x="1609.47" y="231" as="targetPoint" />
          </mxGeometry>
        </mxCell>
        <mxCell id="CjtCFs6DFlmVm1d0gdW7-41" value="" style="endArrow=none;html=1;rounded=0;fontFamily=Times New Roman;labelBackgroundColor=none;strokeColor=#E07A5F;fontColor=default;" edge="1" parent="1">
          <mxGeometry width="50" height="50" relative="1" as="geometry">
            <mxPoint x="1779.47" y="290" as="sourcePoint" />
            <mxPoint x="1779.47" y="231" as="targetPoint" />
          </mxGeometry>
        </mxCell>
        <mxCell id="CjtCFs6DFlmVm1d0gdW7-42" value="" style="endArrow=none;html=1;rounded=0;fontFamily=Times New Roman;labelBackgroundColor=none;strokeColor=#E07A5F;fontColor=default;" edge="1" parent="1">
          <mxGeometry width="50" height="50" relative="1" as="geometry">
            <mxPoint x="1949.47" y="290" as="sourcePoint" />
            <mxPoint x="1949.47" y="231" as="targetPoint" />
          </mxGeometry>
        </mxCell>
        <mxCell id="CjtCFs6DFlmVm1d0gdW7-43" value="" style="endArrow=none;html=1;rounded=0;fontFamily=Times New Roman;labelBackgroundColor=none;strokeColor=#E07A5F;fontColor=default;" edge="1" parent="1">
          <mxGeometry width="50" height="50" relative="1" as="geometry">
            <mxPoint x="2119.47" y="290" as="sourcePoint" />
            <mxPoint x="2119.47" y="231" as="targetPoint" />
          </mxGeometry>
        </mxCell>
        <mxCell id="CjtCFs6DFlmVm1d0gdW7-44" value="" style="endArrow=none;html=1;rounded=0;fontFamily=Times New Roman;labelBackgroundColor=none;strokeColor=#E07A5F;fontColor=default;" edge="1" parent="1">
          <mxGeometry width="50" height="50" relative="1" as="geometry">
            <mxPoint x="2289.47" y="290" as="sourcePoint" />
            <mxPoint x="2289.47" y="231" as="targetPoint" />
          </mxGeometry>
        </mxCell>
        <mxCell id="CjtCFs6DFlmVm1d0gdW7-45" value="" style="endArrow=none;html=1;rounded=0;fontFamily=Times New Roman;labelBackgroundColor=none;strokeColor=#E07A5F;fontColor=default;" edge="1" parent="1">
          <mxGeometry width="50" height="50" relative="1" as="geometry">
            <mxPoint x="2459.47" y="290" as="sourcePoint" />
            <mxPoint x="2459.47" y="231" as="targetPoint" />
          </mxGeometry>
        </mxCell>
        <mxCell id="CjtCFs6DFlmVm1d0gdW7-47" value="" style="endArrow=none;html=1;rounded=0;labelBackgroundColor=none;strokeColor=#E07A5F;fontColor=default;" edge="1" parent="1">
          <mxGeometry width="50" height="50" relative="1" as="geometry">
            <mxPoint x="19.380000000000003" y="409" as="sourcePoint" />
            <mxPoint x="19.380000000000003" y="350" as="targetPoint" />
          </mxGeometry>
        </mxCell>
        <mxCell id="CjtCFs6DFlmVm1d0gdW7-48" value="" style="endArrow=none;html=1;rounded=0;labelBackgroundColor=none;strokeColor=#E07A5F;fontColor=default;" edge="1" parent="1">
          <mxGeometry width="50" height="50" relative="1" as="geometry">
            <mxPoint x="219.57999999999998" y="409" as="sourcePoint" />
            <mxPoint x="219.57999999999998" y="350" as="targetPoint" />
          </mxGeometry>
        </mxCell>
        <mxCell id="CjtCFs6DFlmVm1d0gdW7-49" value="" style="endArrow=none;html=1;rounded=0;labelBackgroundColor=none;strokeColor=#E07A5F;fontColor=default;" edge="1" parent="1">
          <mxGeometry width="50" height="50" relative="1" as="geometry">
            <mxPoint x="399.58" y="409" as="sourcePoint" />
            <mxPoint x="399.58" y="350" as="targetPoint" />
          </mxGeometry>
        </mxCell>
        <mxCell id="Fm-H4xCBO1NpSJnZhTde-1" value="" style="endArrow=none;html=1;rounded=0;labelBackgroundColor=none;strokeColor=#E07A5F;fontColor=default;" edge="1" parent="1">
          <mxGeometry width="50" height="50" relative="1" as="geometry">
            <mxPoint x="760" y="409" as="sourcePoint" />
            <mxPoint x="760" y="350" as="targetPoint" />
          </mxGeometry>
        </mxCell>
        <mxCell id="Fm-H4xCBO1NpSJnZhTde-2" value="" style="endArrow=none;html=1;rounded=0;labelBackgroundColor=none;strokeColor=#E07A5F;fontColor=default;" edge="1" parent="1">
          <mxGeometry width="50" height="50" relative="1" as="geometry">
            <mxPoint x="929.5" y="409" as="sourcePoint" />
            <mxPoint x="929.5" y="350" as="targetPoint" />
          </mxGeometry>
        </mxCell>
        <mxCell id="Fm-H4xCBO1NpSJnZhTde-3" value="" style="endArrow=none;html=1;rounded=0;labelBackgroundColor=none;strokeColor=#E07A5F;fontColor=default;" edge="1" parent="1">
          <mxGeometry width="50" height="50" relative="1" as="geometry">
            <mxPoint x="1099.5" y="409" as="sourcePoint" />
            <mxPoint x="1099.5" y="350" as="targetPoint" />
          </mxGeometry>
        </mxCell>
        <mxCell id="Fm-H4xCBO1NpSJnZhTde-4" value="" style="endArrow=none;html=1;rounded=0;labelBackgroundColor=none;strokeColor=#E07A5F;fontColor=default;" edge="1" parent="1">
          <mxGeometry width="50" height="50" relative="1" as="geometry">
            <mxPoint x="1269.5" y="409" as="sourcePoint" />
            <mxPoint x="1269.5" y="350" as="targetPoint" />
          </mxGeometry>
        </mxCell>
        <mxCell id="Fm-H4xCBO1NpSJnZhTde-5" value="" style="endArrow=none;html=1;rounded=0;labelBackgroundColor=none;strokeColor=#E07A5F;fontColor=default;" edge="1" parent="1">
          <mxGeometry width="50" height="50" relative="1" as="geometry">
            <mxPoint x="1439.5" y="409" as="sourcePoint" />
            <mxPoint x="1439.5" y="350" as="targetPoint" />
          </mxGeometry>
        </mxCell>
        <mxCell id="Fm-H4xCBO1NpSJnZhTde-6" value="" style="endArrow=none;html=1;rounded=0;labelBackgroundColor=none;strokeColor=#E07A5F;fontColor=default;" edge="1" parent="1">
          <mxGeometry width="50" height="50" relative="1" as="geometry">
            <mxPoint x="1609.5" y="409" as="sourcePoint" />
            <mxPoint x="1609.5" y="350" as="targetPoint" />
          </mxGeometry>
        </mxCell>
        <mxCell id="Fm-H4xCBO1NpSJnZhTde-7" value="" style="endArrow=none;html=1;rounded=0;labelBackgroundColor=none;strokeColor=#E07A5F;fontColor=default;" edge="1" parent="1">
          <mxGeometry width="50" height="50" relative="1" as="geometry">
            <mxPoint x="1779.5" y="409" as="sourcePoint" />
            <mxPoint x="1779.5" y="350" as="targetPoint" />
          </mxGeometry>
        </mxCell>
        <mxCell id="Fm-H4xCBO1NpSJnZhTde-8" value="" style="endArrow=none;html=1;rounded=0;labelBackgroundColor=none;strokeColor=#E07A5F;fontColor=default;" edge="1" parent="1">
          <mxGeometry width="50" height="50" relative="1" as="geometry">
            <mxPoint x="1949.5" y="409" as="sourcePoint" />
            <mxPoint x="1949.5" y="350" as="targetPoint" />
          </mxGeometry>
        </mxCell>
        <mxCell id="Fm-H4xCBO1NpSJnZhTde-9" value="" style="endArrow=none;html=1;rounded=0;labelBackgroundColor=none;strokeColor=#E07A5F;fontColor=default;" edge="1" parent="1">
          <mxGeometry width="50" height="50" relative="1" as="geometry">
            <mxPoint x="2119.5" y="409" as="sourcePoint" />
            <mxPoint x="2119.5" y="350" as="targetPoint" />
          </mxGeometry>
        </mxCell>
        <mxCell id="Fm-H4xCBO1NpSJnZhTde-10" value="" style="endArrow=none;html=1;rounded=0;labelBackgroundColor=none;strokeColor=#E07A5F;fontColor=default;" edge="1" parent="1">
          <mxGeometry width="50" height="50" relative="1" as="geometry">
            <mxPoint x="2289.5" y="409" as="sourcePoint" />
            <mxPoint x="2289.5" y="350" as="targetPoint" />
          </mxGeometry>
        </mxCell>
        <mxCell id="Fm-H4xCBO1NpSJnZhTde-11" value="" style="endArrow=none;html=1;rounded=0;labelBackgroundColor=none;strokeColor=#E07A5F;fontColor=default;" edge="1" parent="1">
          <mxGeometry width="50" height="50" relative="1" as="geometry">
            <mxPoint x="2459.5" y="409" as="sourcePoint" />
            <mxPoint x="2459.5" y="350" as="targetPoint" />
          </mxGeometry>
        </mxCell>
        <mxCell id="Fm-H4xCBO1NpSJnZhTde-12" value="Переход на маркетплейс(ozon, wildberries)" style="rounded=0;whiteSpace=wrap;html=1;fontSize=16;fontFamily=Times New Roman;labelBackgroundColor=none;fillColor=#F2CC8F;strokeColor=#E07A5F;fontColor=#393C56;" vertex="1" parent="1">
          <mxGeometry x="1440" y="530" width="140" height="60" as="geometry" />
        </mxCell>
        <mxCell id="Fm-H4xCBO1NpSJnZhTde-14" value="" style="endArrow=none;html=1;rounded=0;labelBackgroundColor=none;strokeColor=#E07A5F;fontColor=default;" edge="1" parent="1">
          <mxGeometry width="50" height="50" relative="1" as="geometry">
            <mxPoint x="19" y="410" as="sourcePoint" />
            <mxPoint x="800" y="410" as="targetPoint" />
          </mxGeometry>
        </mxCell>
        <mxCell id="Fm-H4xCBO1NpSJnZhTde-15" value="" style="endArrow=none;html=1;rounded=0;labelBackgroundColor=none;strokeColor=#E07A5F;fontColor=default;" edge="1" parent="1">
          <mxGeometry width="50" height="50" relative="1" as="geometry">
            <mxPoint x="800" y="410" as="sourcePoint" />
            <mxPoint x="1580" y="410" as="targetPoint" />
          </mxGeometry>
        </mxCell>
        <mxCell id="Fm-H4xCBO1NpSJnZhTde-16" value="" style="endArrow=none;html=1;rounded=0;labelBackgroundColor=none;strokeColor=#E07A5F;fontColor=default;" edge="1" parent="1">
          <mxGeometry width="50" height="50" relative="1" as="geometry">
            <mxPoint x="1580" y="410" as="sourcePoint" />
            <mxPoint x="2460" y="410" as="targetPoint" />
          </mxGeometry>
        </mxCell>
        <mxCell id="Fm-H4xCBO1NpSJnZhTde-17" value="" style="endArrow=none;html=1;rounded=0;labelBackgroundColor=none;strokeColor=#E07A5F;fontColor=default;" edge="1" parent="1">
          <mxGeometry width="50" height="50" relative="1" as="geometry">
            <mxPoint x="1350" y="469" as="sourcePoint" />
            <mxPoint x="1350" y="410" as="targetPoint" />
          </mxGeometry>
        </mxCell>
        <mxCell id="Fm-H4xCBO1NpSJnZhTde-18" value="Вернуться на главную страницу" style="rounded=0;whiteSpace=wrap;html=1;fontSize=16;fontFamily=Times New Roman;labelBackgroundColor=none;fillColor=#F2CC8F;strokeColor=#E07A5F;fontColor=#393C56;" vertex="1" parent="1">
          <mxGeometry x="1110" y="530" width="140" height="60" as="geometry" />
        </mxCell>
        <mxCell id="Fm-H4xCBO1NpSJnZhTde-23" value="" style="endArrow=none;html=1;rounded=0;labelBackgroundColor=none;strokeColor=#E07A5F;fontColor=default;" edge="1" parent="1">
          <mxGeometry width="50" height="50" relative="1" as="geometry">
            <mxPoint x="1180" y="470" as="sourcePoint" />
            <mxPoint x="1510" y="470" as="targetPoint" />
          </mxGeometry>
        </mxCell>
        <mxCell id="Fm-H4xCBO1NpSJnZhTde-24" value="" style="endArrow=none;html=1;rounded=0;labelBackgroundColor=none;strokeColor=#E07A5F;fontColor=default;" edge="1" parent="1">
          <mxGeometry width="50" height="50" relative="1" as="geometry">
            <mxPoint x="1510" y="529" as="sourcePoint" />
            <mxPoint x="1510" y="470" as="targetPoint" />
          </mxGeometry>
        </mxCell>
        <mxCell id="Fm-H4xCBO1NpSJnZhTde-25" value="" style="endArrow=none;html=1;rounded=0;labelBackgroundColor=none;strokeColor=#E07A5F;fontColor=default;" edge="1" parent="1">
          <mxGeometry width="50" height="50" relative="1" as="geometry">
            <mxPoint x="1180" y="529" as="sourcePoint" />
            <mxPoint x="1180" y="470" as="targetPoint" />
          </mxGeometry>
        </mxCell>
      </root>
    </mxGraphModel>
  </diagram>
</mxfile>
